<svg width="0" height="0" class="hidden">
  <symbol xmlns="http://www.w3.org/2000/svg" viewBox="0 0 455.73 455.73" id="facebook">
    <path xmlns="http://www.w3.org/2000/svg" d="M0 0v455.73h242.704V279.691h-59.33v-71.864h59.33v-60.353c0-43.893 35.582-79.475 79.475-79.475h62.025v64.622h-44.382c-13.947 0-25.254 11.307-25.254 25.254v49.953h68.521l-9.47 71.864h-59.051V455.73H455.73V0H0z" fill="currentColor" data-original="#3a559f"></path>
  </symbol>
  <symbol xmlns="http://www.w3.org/2000/svg" viewBox="0 0 291.319 291.319" id="pinterest">
    <g xmlns="http://www.w3.org/2000/svg">
      <path d="M145.659 0c80.45 0 145.66 65.219 145.66 145.66 0 80.45-65.21 145.659-145.66 145.659S0 226.109 0 145.66C0 65.219 65.21 0 145.659 0z" fill="currentColor" data-original="#c8232c"></path>
      <path d="M150.066 63.781c-51.327 0-77.19 35.632-77.19 65.337 0 17.989 7.028 33.993 22.122 39.956 2.467.974 4.698.036 5.408-2.613l2.203-8.403c.728-2.613.446-3.541-1.548-5.826-4.361-4.962-7.128-11.398-7.128-20.511 0-26.428 20.42-50.089 53.175-50.089 29.014 0 44.945 17.161 44.945 40.075 0 30.152-13.783 55.606-34.248 55.606-11.289 0-19.755-9.04-17.042-20.156 3.241-13.237 9.541-27.539 9.541-37.107 0-8.548-4.743-15.704-14.575-15.704-11.553 0-20.829 11.571-20.829 27.074 0 9.878 3.45 16.551 3.45 16.551l-13.901 56.998c-4.124 16.906-.61 37.644-.319 39.738.182 1.238 1.821 1.529 2.567.601 1.065-1.347 14.821-17.798 19.5-34.239 1.329-4.652 7.602-28.75 7.602-28.75 3.751 6.946 14.721 13.046 26.383 13.046 34.712 0 58.273-30.652 58.273-71.674-.011-31.015-27.14-59.91-68.389-59.91z" fill="#fff" data-original="#ffffff"></path>
    </g>
  </symbol>
  <symbol xmlns="http://www.w3.org/2000/svg" viewBox="0 0 291.364 291.364" id="skype">
    <g xmlns="http://www.w3.org/2000/svg">
      <path d="M282.966 176.612a136.24 136.24 0 003.204-29.405c0-75.661-62.197-137.011-138.941-137.011-8.093 0-16.032.692-23.752 2.003C111.061 4.479 96.367 0 80.618 0 36.101 0 .032 35.577.032 79.475c0 14.657 4.051 28.385 11.07 40.193a135.273 135.273 0 00-2.813 27.539c0 75.688 62.197 134.753 138.932 134.753 8.694 0 17.197-.792 25.436-2.294 11.352 6.008 24.316 11.698 38.099 11.698 44.508 0 80.577-35.568 80.577-79.466a78.266 78.266 0 00-8.367-35.286z" fill="currentColor" data-original="#00aff0"></path>
      <path d="M210.6 203.131c-5.362 7.62-13.21 13.61-23.542 17.916-10.333 4.342-22.568 6.491-36.724 6.491-16.978 0-30.98-2.95-42.023-8.858-7.811-4.242-14.174-9.923-19.072-17.006-4.88-7.083-7.328-13.983-7.328-20.693 0-3.878 1.466-7.21 4.397-9.969 2.931-2.795 6.673-4.169 11.198-4.169 3.678 0 6.8 1.065 9.331 3.241 2.549 2.158 4.725 5.353 6.509 9.604 2.194 5.053 4.552 9.268 7.11 12.645 2.531 3.377 6.118 6.181 10.724 8.375 4.625 2.176 10.697 3.286 18.198 3.286 10.324 0 18.717-2.203 25.181-6.637 6.445-4.415 9.686-9.959 9.686-16.578 0-5.244-1.748-9.532-5.226-12.782-3.487-3.277-7.984-5.781-13.501-7.501-5.508-1.739-12.882-3.578-22.131-5.517-12.354-2.649-22.705-5.781-31.025-9.331-8.33-3.578-14.957-8.43-19.837-14.575-4.898-6.172-7.338-13.819-7.338-22.95 0-8.721 2.576-16.45 7.747-23.214 5.162-6.773 12.618-11.971 22.413-15.613 9.777-3.641 21.285-5.453 34.494-5.453 10.56 0 19.7 1.211 27.411 3.605 7.711 2.422 14.093 5.626 19.172 9.623 5.089 3.997 8.812 8.184 11.152 12.581 2.349 4.37 3.523 8.685 3.523 12.836 0 3.814-1.457 7.274-4.388 10.324-2.931 3.059-6.591 4.597-10.97 4.597-3.997 0-7.028-.929-9.104-2.758-2.076-1.839-4.324-4.843-6.737-9.022-3.141-5.972-6.882-10.633-11.27-13.974-4.388-3.35-11.416-5.025-21.121-5.025-8.985 0-16.25 1.803-21.767 5.453-5.517 3.623-8.284 8.011-8.284 13.118 0 3.15.956 5.899 2.822 8.202 1.866 2.321 4.452 4.279 7.756 5.927a55.661 55.661 0 009.959 3.905c3.359.938 8.922 2.294 16.678 4.097 9.686 2.085 18.471 4.397 26.337 6.91 7.857 2.522 14.557 5.59 20.074 9.167 5.508 3.605 9.823 8.175 12.909 13.692 3.086 5.499 4.643 12.244 4.643 20.238.003 9.56-2.691 18.163-8.036 25.792z" fill="#fff" data-original="#ffffff"></path>
    </g>
  </symbol>
  <symbol xmlns="http://www.w3.org/2000/svg" viewBox="0 0 455.731 455.731" id="twitter">
    <g xmlns="http://www.w3.org/2000/svg">
      <path fill="#50abf100" data-original="#50abf1" d="M0 0h455.731v455.731H0z"></path>
      <path d="M60.377 337.822c30.33 19.236 66.308 30.368 104.875 30.368 108.349 0 196.18-87.841 196.18-196.18 0-2.705-.057-5.39-.161-8.067 3.919-3.084 28.157-22.511 34.098-35 0 0-19.683 8.18-38.947 10.107-.038 0-.085.009-.123.009 0 0 .038-.019.104-.066 1.775-1.186 26.591-18.079 29.951-38.207 0 0-13.922 7.431-33.415 13.932a223.578 223.578 0 01-10.088 3.103c-12.565-13.41-30.425-21.78-50.25-21.78-38.027 0-68.841 30.805-68.841 68.803a68.67 68.67 0 001.784 15.592c-5.314-.218-86.237-4.755-141.289-71.423 0 0-32.902 44.917 19.607 91.105 0 0-15.962-.636-29.733-8.864 0 0-5.058 54.416 54.407 68.329 0 0-11.701 4.432-30.368 1.272 0 0 10.439 43.968 63.271 48.077 0 0-41.777 37.74-101.081 28.885l.019.005z" fill="currentColor" data-original="#ffffff"></path>
    </g>
  </symbol>
</svg>