<svg width="0" height="0" class="hidden">
  <symbol xmlns="http://www.w3.org/2000/svg" viewBox="0 0 512 512" id="phone">
    <path fill="currentColor" data-original="#000000" d="M339.392 258.624L512 367.744V144.896zM0 144.896v222.848l172.608-109.12zM480 80H32C16.032 80 3.36 91.904.96 107.232L256 275.264l255.04-168.032C508.64 91.904 495.968 80 480 80zM310.08 277.952l-45.28 29.824a15.983 15.983 0 01-8.8 2.624c-3.072 0-6.112-.864-8.8-2.624l-45.28-29.856L1.024 404.992C3.488 420.192 16.096 432 32 432h448c15.904 0 28.512-11.808 30.976-27.008L310.08 277.952z" xmlns="http://www.w3.org/2000/svg"></path>
  </symbol>
  <symbol xmlns="http://www.w3.org/2000/svg" viewBox="0 0 58 58" id="email">
    <g fill="currentColor" xmlns="http://www.w3.org/2000/svg">
      <path d="M24.017 33.983c-5.536-5.536-6.786-11.072-7.068-13.29a1.988 1.988 0 01.571-1.664L22 14.551a2 2 0 00.282-2.475L15.149 1a2 2 0 00-2.591-.729L1.107 5.664a1.989 1.989 0 00-1.1 1.987c.6 5.7 3.085 19.712 16.855 33.483s27.78 16.255 33.483 16.855a1.989 1.989 0 001.987-1.1l5.393-11.451A2 2 0 0057 42.851L45.924 35.72a2 2 0 00-2.475.28l-4.478 4.48c-.436.439-1.05.65-1.664.571-2.218-.282-7.754-1.532-13.29-7.068z" data-original="#000000"></path>
      <path d="M46 31a2 2 0 01-2-2c-.01-8.28-6.72-14.99-15-15a2 2 0 110-4c10.489.012 18.988 8.511 19 19a2 2 0 01-2 2z" data-original="#000000"></path>
      <path d="M56 31a2 2 0 01-2-2C53.985 15.2 42.8 4.015 29 4a2 2 0 110-4c16.009.018 28.982 12.991 29 29a2 2 0 01-2 2z" data-original="#000000"></path>
    </g>
  </symbol>
  <symbol xmlns="http://www.w3.org/2000/svg" viewBox="0 0 460.298 460.297" id="home">
    <g xmlns="http://www.w3.org/2000/svg" fill="currentColor">
      <path d="M230.149 120.939L65.986 256.274c0 .191-.048.472-.144.855-.094.38-.144.656-.144.852v137.041c0 4.948 1.809 9.236 5.426 12.847 3.616 3.613 7.898 5.431 12.847 5.431h109.63V303.664h73.097v109.64h109.629c4.948 0 9.236-1.814 12.847-5.435 3.617-3.607 5.432-7.898 5.432-12.847V257.981c0-.76-.104-1.334-.288-1.707L230.149 120.939z" data-original="#000000"></path>
      <path d="M457.122 225.438L394.6 173.476V56.989c0-2.663-.856-4.853-2.574-6.567-1.704-1.712-3.894-2.568-6.563-2.568h-54.816c-2.666 0-4.855.856-6.57 2.568-1.711 1.714-2.566 3.905-2.566 6.567v55.673l-69.662-58.245c-6.084-4.949-13.318-7.423-21.694-7.423-8.375 0-15.608 2.474-21.698 7.423L3.172 225.438c-1.903 1.52-2.946 3.566-3.14 6.136-.193 2.568.472 4.811 1.997 6.713l17.701 21.128c1.525 1.712 3.521 2.759 5.996 3.142 2.285.192 4.57-.476 6.855-1.998L230.149 95.817l197.57 164.741c1.526 1.328 3.521 1.991 5.996 1.991h.858c2.471-.376 4.463-1.43 5.996-3.138l17.703-21.125c1.522-1.906 2.189-4.145 1.991-6.716-.195-2.563-1.242-4.609-3.141-6.132z" data-original="#000000"></path>
    </g>
  </symbol>
</svg>